<mxfile host="app.diagrams.net" agent="Mozilla/5.0 (Macintosh; Intel Mac OS X 10_15_7) AppleWebKit/537.36 (KHTML, like Gecko) Chrome/133.0.0.0 Safari/537.36" version="26.0.13">
  <diagram name="Page-1" id="c8J4BLnS0nRPYgdjsnPu">
    <mxGraphModel dx="2022" dy="2277" grid="1" gridSize="10" guides="1" tooltips="1" connect="1" arrows="1" fold="1" page="1" pageScale="1" pageWidth="850" pageHeight="1100" math="0" shadow="0">
      <root>
        <mxCell id="0" />
        <mxCell id="1" parent="0" />
        <mxCell id="Ylw8OMx2RZW9N2jsxxhR-1" value="" style="whiteSpace=wrap;html=1;aspect=fixed;" vertex="1" parent="1">
          <mxGeometry x="170" y="100" width="510" height="510" as="geometry" />
        </mxCell>
        <mxCell id="Ylw8OMx2RZW9N2jsxxhR-2" value="Day/Week" style="rounded=1;whiteSpace=wrap;html=1;" vertex="1" parent="1">
          <mxGeometry x="240" y="125" width="330" height="40" as="geometry" />
        </mxCell>
        <mxCell id="Ylw8OMx2RZW9N2jsxxhR-3" value="" style="rounded=0;whiteSpace=wrap;html=1;" vertex="1" parent="1">
          <mxGeometry x="230" y="220" width="410" height="260" as="geometry" />
        </mxCell>
        <mxCell id="Ylw8OMx2RZW9N2jsxxhR-4" value="" style="rounded=0;whiteSpace=wrap;html=1;" vertex="1" parent="1">
          <mxGeometry x="240" y="230" width="60" height="230" as="geometry" />
        </mxCell>
        <mxCell id="Ylw8OMx2RZW9N2jsxxhR-5" value="" style="rounded=0;whiteSpace=wrap;html=1;" vertex="1" parent="1">
          <mxGeometry x="310" y="230" width="60" height="230" as="geometry" />
        </mxCell>
        <mxCell id="Ylw8OMx2RZW9N2jsxxhR-6" value="" style="rounded=0;whiteSpace=wrap;html=1;" vertex="1" parent="1">
          <mxGeometry x="390" y="235" width="60" height="230" as="geometry" />
        </mxCell>
        <mxCell id="Ylw8OMx2RZW9N2jsxxhR-7" value="" style="rounded=0;whiteSpace=wrap;html=1;" vertex="1" parent="1">
          <mxGeometry x="460" y="230" width="60" height="230" as="geometry" />
        </mxCell>
        <mxCell id="Ylw8OMx2RZW9N2jsxxhR-8" value="" style="rounded=0;whiteSpace=wrap;html=1;" vertex="1" parent="1">
          <mxGeometry x="540" y="235" width="60" height="230" as="geometry" />
        </mxCell>
        <mxCell id="Ylw8OMx2RZW9N2jsxxhR-9" value="Shift" style="rounded=1;whiteSpace=wrap;html=1;" vertex="1" parent="1">
          <mxGeometry x="590" y="125" width="90" height="50" as="geometry" />
        </mxCell>
        <mxCell id="Ylw8OMx2RZW9N2jsxxhR-10" value="1pm&lt;div&gt;&lt;br&gt;&lt;/div&gt;&lt;div&gt;2pm&lt;/div&gt;&lt;div&gt;&lt;br&gt;&lt;/div&gt;&lt;div&gt;....&lt;/div&gt;" style="text;html=1;align=center;verticalAlign=middle;whiteSpace=wrap;rounded=0;" vertex="1" parent="1">
          <mxGeometry x="180" y="220" width="60" height="220" as="geometry" />
        </mxCell>
        <mxCell id="Ylw8OMx2RZW9N2jsxxhR-11" value="" style="endArrow=none;dashed=1;html=1;dashPattern=1 3;strokeWidth=2;rounded=0;" edge="1" parent="1" source="Ylw8OMx2RZW9N2jsxxhR-4">
          <mxGeometry width="50" height="50" relative="1" as="geometry">
            <mxPoint x="330" y="307.5" as="sourcePoint" />
            <mxPoint x="440" y="300" as="targetPoint" />
          </mxGeometry>
        </mxCell>
        <mxCell id="Ylw8OMx2RZW9N2jsxxhR-12" value="Dates 1st 12am to 2nd 12pm, 5th 2-3pm" style="rounded=0;whiteSpace=wrap;html=1;" vertex="1" parent="1">
          <mxGeometry x="710" y="230" width="270" height="220" as="geometry" />
        </mxCell>
        <mxCell id="Ylw8OMx2RZW9N2jsxxhR-13" value="Available/Not/tentative" style="rounded=1;whiteSpace=wrap;html=1;" vertex="1" parent="1">
          <mxGeometry x="730" y="370" width="120" height="60" as="geometry" />
        </mxCell>
        <mxCell id="Ylw8OMx2RZW9N2jsxxhR-14" value="Save" style="rounded=1;whiteSpace=wrap;html=1;" vertex="1" parent="1">
          <mxGeometry x="860" y="370" width="120" height="60" as="geometry" />
        </mxCell>
        <mxCell id="Ylw8OMx2RZW9N2jsxxhR-15" value="Event" style="rounded=1;whiteSpace=wrap;html=1;" vertex="1" parent="1">
          <mxGeometry x="600" y="175" width="90" height="50" as="geometry" />
        </mxCell>
        <mxCell id="Ylw8OMx2RZW9N2jsxxhR-16" value="" style="rounded=0;whiteSpace=wrap;html=1;" vertex="1" parent="1">
          <mxGeometry x="305" y="1380" width="70" height="20" as="geometry" />
        </mxCell>
        <mxCell id="Ylw8OMx2RZW9N2jsxxhR-17" value="" style="rounded=0;whiteSpace=wrap;html=1;" vertex="1" parent="1">
          <mxGeometry x="310" y="317.5" width="60" height="25" as="geometry" />
        </mxCell>
        <mxCell id="Ylw8OMx2RZW9N2jsxxhR-18" value="&lt;h1 style=&quot;margin-top: 0px;&quot;&gt;EventCompnent&lt;/h1&gt;&lt;p&gt;Point (x,y)&lt;/p&gt;&lt;p&gt;width,&lt;/p&gt;&lt;p&gt;height&lt;/p&gt;&lt;p&gt;bgColor&lt;/p&gt;&lt;p&gt;Type&lt;/p&gt;&lt;p&gt;TimeSlots&lt;/p&gt;&lt;p&gt;&lt;br&gt;&lt;/p&gt;&lt;p&gt;&lt;br&gt;&lt;/p&gt;&lt;p&gt;&lt;br&gt;&lt;/p&gt;&lt;p&gt;&lt;br&gt;&lt;/p&gt;" style="text;html=1;whiteSpace=wrap;overflow=hidden;rounded=0;" vertex="1" parent="1">
          <mxGeometry x="1120" y="360" width="190" height="200" as="geometry" />
        </mxCell>
        <mxCell id="Ylw8OMx2RZW9N2jsxxhR-19" value="Component hierarchy&lt;div&gt;State management&lt;/div&gt;&lt;div&gt;Routing/interaction&lt;/div&gt;&lt;div&gt;Data flow / service int.&lt;br&gt;&lt;div&gt;&lt;br&gt;&lt;/div&gt;&lt;/div&gt;" style="text;html=1;align=center;verticalAlign=middle;whiteSpace=wrap;rounded=0;" vertex="1" parent="1">
          <mxGeometry x="1050" y="90" width="170" height="90" as="geometry" />
        </mxCell>
        <mxCell id="Ylw8OMx2RZW9N2jsxxhR-22" value="" style="edgeStyle=orthogonalEdgeStyle;rounded=0;orthogonalLoop=1;jettySize=auto;html=1;" edge="1" parent="1" source="Ylw8OMx2RZW9N2jsxxhR-20" target="Ylw8OMx2RZW9N2jsxxhR-21">
          <mxGeometry relative="1" as="geometry" />
        </mxCell>
        <mxCell id="Ylw8OMx2RZW9N2jsxxhR-20" value="ContainerComponent&lt;div&gt;Day/WeekPicker&lt;/div&gt;&lt;div&gt;CalenderPicker&lt;/div&gt;&lt;div&gt;Shift/Event Button&lt;/div&gt;&lt;div&gt;CalView&lt;/div&gt;&lt;div&gt;WeekComponent&lt;/div&gt;&lt;div&gt;DayComponent&lt;/div&gt;&lt;div&gt;EventComponent&lt;/div&gt;" style="text;html=1;align=center;verticalAlign=middle;whiteSpace=wrap;rounded=0;" vertex="1" parent="1">
          <mxGeometry x="815" y="20" width="135" height="50" as="geometry" />
        </mxCell>
        <mxCell id="Ylw8OMx2RZW9N2jsxxhR-21" value="ContainerComponent&lt;div&gt;Day/WeekPicker&lt;/div&gt;&lt;div&gt;CalenderPicker&lt;/div&gt;&lt;div&gt;Shift/Event Button&lt;/div&gt;&lt;div&gt;CalView&lt;/div&gt;&lt;div&gt;WeekComponent&lt;/div&gt;&lt;div&gt;DayComponent&lt;/div&gt;&lt;div&gt;EventComponent&lt;/div&gt;" style="text;html=1;align=center;verticalAlign=middle;whiteSpace=wrap;rounded=0;" vertex="1" parent="1">
          <mxGeometry x="815" y="-110" width="135" height="50" as="geometry" />
        </mxCell>
        <mxCell id="Ylw8OMx2RZW9N2jsxxhR-23" value="&lt;h1 style=&quot;margin-top: 0px;&quot;&gt;ContainerComp&lt;/h1&gt;&lt;div&gt;Data sync&lt;/div&gt;&lt;div&gt;Responsive effects&lt;/div&gt;&lt;div&gt;&lt;br&gt;&lt;/div&gt;" style="text;html=1;whiteSpace=wrap;overflow=hidden;rounded=0;" vertex="1" parent="1">
          <mxGeometry x="1090" y="180" width="190" height="200" as="geometry" />
        </mxCell>
        <mxCell id="Ylw8OMx2RZW9N2jsxxhR-24" value="&lt;h1 style=&quot;margin-top: 0px;&quot;&gt;Get - Events (UserID/s, StartDateTime, EndDateTime, Type, Sort, Page)&lt;/h1&gt;&lt;div&gt;Get Event (eventID)&lt;/div&gt;&lt;div&gt;Post Events (start, end, type)&amp;nbsp;&lt;/div&gt;&lt;div&gt;&lt;span style=&quot;white-space: pre;&quot;&gt;&#x9;&lt;/span&gt;Body Array of events&amp;nbsp;&lt;br&gt;&lt;/div&gt;&lt;div&gt;Delete (eventID/IDs)&lt;/div&gt;&lt;div&gt;Update events Array of event with event IDs&lt;/div&gt;&lt;div&gt;&lt;br&gt;&lt;/div&gt;&lt;div&gt;&lt;span style=&quot;color: rgba(0, 0, 0, 0); font-family: monospace; font-size: 0px; text-wrap-mode: nowrap; background-color: transparent;&quot;&gt;S3CmxGraphModel%3E%3Croot%3E%3CmxCell%20id%3D%220%22%2F%3E%3CmxCell%20id%3D%221%22%20parent%3D%220%22%2F%3E%3CmxCell%20id%3D%222%22%20value%3D%22%26lt%3Bh1%20style%3D%26quot%3Bmargin-top%3A%200px%3B%26quot%3B%26gt%3BEventCompnent%26lt%3B%2Fh1%26gt%3B%26lt%3Bp%26gt%3BPoint%20(x%2Cy)%26lt%3B%2Fp%26gt%3B%26lt%3Bp%26gt%3Bwidth%2C%26lt%3B%2Fp%26gt%3B%26lt%3Bp%26gt%3Bheight%26lt%3B%2Fp%26gt%3B%26lt%3Bp%26gt%3BbgColor%26lt%3B%2Fp%26gt%3B%26lt%3Bp%26gt%3BType%26lt%3B%2Fp%26gt%3B%26lt%3Bp%26gt%3BTimeSlots%26lt%3B%2Fp%26gt%3B%26lt%3Bp%26gt%3B%26lt%3Bbr%26gt%3B%26lt%3B%2Fp%26gt%3B%26lt%3Bp%26gt%3B%26lt%3Bbr%26gt%3B%26lt%3B%2Fp%26gt%3B%26lt%3Bp%26gt%3B%26lt%3Bbr%26gt%3B%26lt%3B%2Fp%26gt%3B%26lt%3Bp%26gt%3B%26lt%3Bbr%26gt%3B%26lt%3B%2Fp%26gt%3B%22%20style%3D%22text%3Bhtml%3D1%3BwhiteSpace%3Dwrap%3Boverflow%3Dhidden%3Brounded%3D0%3B%22%20vertex%3D%221%22%20parent%3D%221%22%3E%3CmxGeometry%20x%3D%221120%22%20y%3D%22360%22%20width%3D%22190%22%20height%3D%22200%22%20as%3D%22geometry%22%2F%3E%3C%2FmxCell%3E%3C%2Froot%3E%3C%2FmxGraphModel%3E&lt;/span&gt;&lt;/div&gt;&lt;p&gt;Lorem ipsum dolor sit amet, consectetur adipisicing elit, sed do eiusmod tempor incididunt ut labore et dolore magna aliqua.&lt;/p&gt;" style="text;html=1;whiteSpace=wrap;overflow=hidden;rounded=0;" vertex="1" parent="1">
          <mxGeometry x="190" y="750" width="930" height="210" as="geometry" />
        </mxCell>
      </root>
    </mxGraphModel>
  </diagram>
</mxfile>
